# Legends greybox prop: CrystalCluster
v -0.2500 0.0000 -0.2500
v 0.2500 0.0000 -0.2500
v -0.2500 2.4000 -0.2500
v 0.2500 2.4000 -0.2500
v -0.2500 0.0000 0.2500
v 0.2500 0.0000 0.2500
v -0.2500 2.4000 0.2500
v 0.2500 2.4000 0.2500
f 1 2 4 3
f 5 7 8 6
f 1 3 7 5
f 2 6 8 4
f 3 4 8 7
f 1 5 6 2
v 0.4250 0.0000 0.0250
v 0.7750 0.0000 0.0250
v 0.4250 1.6000 0.0250
v 0.7750 1.6000 0.0250
v 0.4250 0.0000 0.3750
v 0.7750 0.0000 0.3750
v 0.4250 1.6000 0.3750
v 0.7750 1.6000 0.3750
f 9 10 12 11
f 13 15 16 14
f 9 11 15 13
f 10 14 16 12
f 11 12 16 15
f 9 13 14 10
v -0.7000 0.0000 -0.5000
v -0.3000 0.0000 -0.5000
v -0.7000 1.8000 -0.5000
v -0.3000 1.8000 -0.5000
v -0.7000 0.0000 -0.1000
v -0.3000 0.0000 -0.1000
v -0.7000 1.8000 -0.1000
v -0.3000 1.8000 -0.1000
f 17 18 20 19
f 21 23 24 22
f 17 19 23 21
f 18 22 24 20
f 19 20 24 23
f 17 21 22 18
v 0.0500 0.0000 -0.6500
v 0.3500 0.0000 -0.6500
v 0.0500 1.2000 -0.6500
v 0.3500 1.2000 -0.6500
v 0.0500 0.0000 -0.3500
v 0.3500 0.0000 -0.3500
v 0.0500 1.2000 -0.3500
v 0.3500 1.2000 -0.3500
f 25 26 28 27
f 29 31 32 30
f 25 27 31 29
f 26 30 32 28
f 27 28 32 31
f 25 29 30 26
