# Legends greybox prop: DragonMount
v -0.6000 0.5000 -1.6000
v 0.6000 0.5000 -1.6000
v -0.6000 1.5000 -1.6000
v 0.6000 1.5000 -1.6000
v -0.6000 0.5000 1.6000
v 0.6000 0.5000 1.6000
v -0.6000 1.5000 1.6000
v 0.6000 1.5000 1.6000
f 1 2 4 3
f 5 7 8 6
f 1 3 7 5
f 2 6 8 4
f 3 4 8 7
f 1 5 6 2
v -0.3500 1.2500 1.3000
v 0.3500 1.2500 1.3000
v -0.3500 1.9500 1.3000
v 0.3500 1.9500 1.3000
v -0.3500 1.2500 2.7000
v 0.3500 1.2500 2.7000
v -0.3500 1.9500 2.7000
v 0.3500 1.9500 2.7000
f 9 10 12 11
f 13 15 16 14
f 9 11 15 13
f 10 14 16 12
f 11 12 16 15
f 9 13 14 10
v -0.4500 1.5500 2.5500
v 0.4500 1.5500 2.5500
v -0.4500 2.2500 2.5500
v 0.4500 2.2500 2.5500
v -0.4500 1.5500 3.4500
v 0.4500 1.5500 3.4500
v -0.4500 2.2500 3.4500
v 0.4500 2.2500 3.4500
f 17 18 20 19
f 21 23 24 22
f 17 19 23 21
f 18 22 24 20
f 19 20 24 23
f 17 21 22 18
v -0.2500 0.6500 -3.3000
v 0.2500 0.6500 -3.3000
v -0.2500 1.1500 -3.3000
v 0.2500 1.1500 -3.3000
v -0.2500 0.6500 -1.5000
v 0.2500 0.6500 -1.5000
v -0.2500 1.1500 -1.5000
v 0.2500 1.1500 -1.5000
f 25 26 28 27
f 29 31 32 30
f 25 27 31 29
f 26 30 32 28
f 27 28 32 31
f 25 29 30 26
v 0.6000 1.3250 -0.8000
v 3.0000 1.3250 -0.8000
v 0.6000 1.4750 -0.8000
v 3.0000 1.4750 -0.8000
v 0.6000 1.3250 0.8000
v 3.0000 1.3250 0.8000
v 0.6000 1.4750 0.8000
v 3.0000 1.4750 0.8000
f 33 34 36 35
f 37 39 40 38
f 33 35 39 37
f 34 38 40 36
f 35 36 40 39
f 33 37 38 34
v -3.0000 1.3250 -0.8000
v -0.6000 1.3250 -0.8000
v -3.0000 1.4750 -0.8000
v -0.6000 1.4750 -0.8000
v -3.0000 1.3250 0.8000
v -0.6000 1.3250 0.8000
v -3.0000 1.4750 0.8000
v -0.6000 1.4750 0.8000
f 41 42 44 43
f 45 47 48 46
f 41 43 47 45
f 42 46 48 44
f 43 44 48 47
f 41 45 46 42
