# Legends greybox prop: Tree
v -0.2000 0.0000 -0.2000
v 0.2000 0.0000 -0.2000
v -0.2000 1.2000 -0.2000
v 0.2000 1.2000 -0.2000
v -0.2000 0.0000 0.2000
v 0.2000 0.0000 0.2000
v -0.2000 1.2000 0.2000
v 0.2000 1.2000 0.2000
f 1 2 4 3
f 5 7 8 6
f 1 3 7 5
f 2 6 8 4
f 3 4 8 7
f 1 5 6 2
v -1.0000 0.9500 -1.0000
v 1.0000 0.9500 -1.0000
v -1.0000 1.8500 -1.0000
v 1.0000 1.8500 -1.0000
v -1.0000 0.9500 1.0000
v 1.0000 0.9500 1.0000
v -1.0000 1.8500 1.0000
v 1.0000 1.8500 1.0000
f 9 10 12 11
f 13 15 16 14
f 9 11 15 13
f 10 14 16 12
f 11 12 16 15
f 9 13 14 10
v -0.7500 1.7000 -0.7500
v 0.7500 1.7000 -0.7500
v -0.7500 2.5000 -0.7500
v 0.7500 2.5000 -0.7500
v -0.7500 1.7000 0.7500
v 0.7500 1.7000 0.7500
v -0.7500 2.5000 0.7500
v 0.7500 2.5000 0.7500
f 17 18 20 19
f 21 23 24 22
f 17 19 23 21
f 18 22 24 20
f 19 20 24 23
f 17 21 22 18
v -0.5000 2.3500 -0.5000
v 0.5000 2.3500 -0.5000
v -0.5000 3.0500 -0.5000
v 0.5000 3.0500 -0.5000
v -0.5000 2.3500 0.5000
v 0.5000 2.3500 0.5000
v -0.5000 3.0500 0.5000
v 0.5000 3.0500 0.5000
f 25 26 28 27
f 29 31 32 30
f 25 27 31 29
f 26 30 32 28
f 27 28 32 31
f 25 29 30 26
